<svg xmlns="http://www.w3.org/2000/svg" xmlns:xlink="http://www.w3.org/1999/xlink" width="82" height="37.561" viewBox="0 0 82 37.561"><defs><clipPath id="clip-path"><rect id="Ret&#xE2;ngulo_110" data-name="Ret&#xE2;ngulo 110" width="82" height="37.561" fill="none"></rect></clipPath></defs><g id="Grupo_455" data-name="Grupo 455" clip-path="url(#clip-path)"><path id="Caminho_197" data-name="Caminho 197" d="M137.8,83.767q-.3,0-.814-.048v3.719H135.2V77.328q1.793-.077,2.1-.076a6.464,6.464,0,0,1,3.5.736,2.561,2.561,0,0,1,1.106,2.3q0,3.482-4.1,3.482m-.27-4.916a4.176,4.176,0,0,0-.544.035V82.12a7.147,7.147,0,0,0,.717.048,3.085,3.085,0,0,0,1.792-.41,1.536,1.536,0,0,0,.566-1.335q0-1.573-2.53-1.573" transform="translate(-98.748 -56.41)" fill="#fff"></path><path id="Caminho_198" data-name="Caminho 198" d="M165.954,87.635V77.522h1.79v8.514h4.567v1.6Z" transform="translate(-121.211 -56.607)" fill="#fff"></path><path id="Caminho_199" data-name="Caminho 199" d="M198.093,87.265l-.738-2.048h-3.463l-.7,2.048H191.2l4.03-10.25h.787l4.062,10.25Zm-2.473-7.157L194.4,83.843h2.428Z" transform="translate(-139.65 -56.237)" fill="#fff"></path><path id="Caminho_200" data-name="Caminho 200" d="M234.734,87.771l-4.9-6.394v6.265H228.1V77.522h.859l4.776,6.1v-6.1h1.726V87.771Z" transform="translate(-166.606 -56.607)" fill="#fff"></path><path id="Caminho_201" data-name="Caminho 201" d="M281.957,87.395H278.87V77.29q2.041-.1,2.861-.1a3.978,3.978,0,0,1,2.458.673,2.27,2.27,0,0,1,.886,1.922,2.114,2.114,0,0,1-1.268,1.9,2.863,2.863,0,0,1,.838,4.9,4.244,4.244,0,0,1-2.688.811m-.267-8.708q-.421,0-1.03.035V81.15c.277.018.566.027.871.027q1.755,0,1.754-1.321,0-1.169-1.6-1.169m-.127,3.84q-.262,0-.9.021v3.345q.544.048.882.048a2.921,2.921,0,0,0,1.74-.408,1.588,1.588,0,0,0,.541-1.354,1.5,1.5,0,0,0-.5-1.258,2.931,2.931,0,0,0-1.757-.394" transform="translate(-203.685 -56.367)" fill="#fff"></path><path id="Caminho_202" data-name="Caminho 202" d="M4.9,57.285c-2.748,0-4.9,1.626-4.9,3.7a1.165,1.165,0,0,0,.007.134l1.541,14.7a1.238,1.238,0,0,1-.007-.134c0,2.076,2.153,3.7,4.9,3.7H18.731c2.748,0,4.9-1.626,4.9-3.7a1.31,1.31,0,0,1-.007.134s.163-1.551.3-2.836A3.892,3.892,0,0,0,28,69.468l.353-3.662c.013-.128.019-.255.019-.383A3.868,3.868,0,0,0,25.116,61.6c.019-.177.05-.479.05-.479,0-.044.007-.089.007-.134,0-2.076-2.153-3.7-4.9-3.7Zm0,2.57H20.272c1.39,0,2.311.669,2.327,1.119-.023.214-.192,1.826-.192,1.826a1.319,1.319,0,0,0-.007.134,1.284,1.284,0,0,0,1.671,1.225A1.318,1.318,0,0,1,24.6,64.1h0a1.333,1.333,0,0,1,1.2,1.454l-.353,3.663a1.332,1.332,0,0,1-1.453,1.2,1.312,1.312,0,0,1-.539-.18,1.284,1.284,0,0,0-1.926.975l-.455,4.34a1.315,1.315,0,0,0-.007.134c0,.45-.93,1.132-2.332,1.132H6.443c-1.4,0-2.333-.681-2.333-1.132a1.242,1.242,0,0,0-.007-.134L2.574,60.975c.016-.451.936-1.119,2.327-1.119m19.944,1.691h0Z" transform="translate(0 -41.83)" fill="#fff"></path><path id="Caminho_203" data-name="Caminho 203" d="M25.187,14.026a1.112,1.112,0,0,1-.447-1.194c.145-.861,1.029-2.249,3.98-4.359,2.462-1.761,3.766-2.808,3.978-3.86S32.03,2.5,30.126.722c-1.541-1.442.971-.571,3,1.294s3.582,4.726.116,7.26c-2.093,1.531-.931,2.718.753,3.523a18.867,18.867,0,0,0,3.892,1.226Z" transform="translate(-18.053 -0.001)" fill="#fff"></path></g></svg>